<svg xmlns="http://www.w3.org/2000/svg" viewBox="0 0 313.67 292.51"><path d="M300.43,154c34.46,0,68.91-.09,103.37,0,37.94.12,56.6,20.09,52.51,57.52q-10.37,94.95-22,189.76c-3.54,28.95-21.09,44.58-50.39,44.81q-83.89.64-167.79,0c-29.28-.24-46.78-15.85-50.31-44.89q-11.67-95.85-22.13-191.84c-3.73-34.56,15.41-55.09,50.4-55.33C229.52,153.81,265,154,300.43,154ZM422.7,231c1.1-5.81,2.05-9.69,2.56-13.63,3.7-28.58.36-32.36-28.37-32.36q-99.67,0-199.36,0c-21.58,0-25.65,4.38-23.18,26.09q10.44,91.51,21.48,183C198,412,201.61,414.93,220.06,415c48,.08,95.93.33,143.89-.08,31.34-.27,39.15,8.47,41.81-36.15.12-2,.73-3.93,1-5.91,4.35-36.59,8.67-73.17,13.2-111.45-11.12,0-21-.06-30.9,0-18.48.14-22.43,3.46-25.21,22-3.39,22.71-6.7,45.44-9.6,68.21-1.53,12-7.6,17.65-19.78,17.53-22.48-.24-45-.39-67.45.06-13.6.26-19.79-5.69-21.46-19.13-3.67-29.72-8.12-59.35-12.59-89-3.94-26-.69-30.13,25.51-30.14Zm-86.88,31.62H264.08c2,13.66,4,25.95,5.59,38.29,5.2,40,5.15,40,45.57,37.72.5,0,1.18.19,1.47-.05,3.28-2.78,8.81-5.22,9.37-8.51C329.88,308,332.61,285.71,335.82,262.62Z" transform="translate(-143.2 -153.93)"/></svg>