<svg xmlns="http://www.w3.org/2000/svg" viewBox="0 0 410 410" style="enable-background:new 0 0 410 410" xml:space="preserve"><path d="M122.6 39.8h12.9c3 8.1 6.1 16.2 9.2 24.6h120.5c3.6-9.3 6.5-16.9 9.5-24.6h12.9c3.1 8 6.1 16.1 9.5 25 6.4.5 14.7.3 22.4 2 27.4 6 42.4 24.9 50.5 50.4v201.1c-1.5 3.5-2.9 7-4.4 10.5-10.6 25.5-29.9 40.3-57.3 40.7-69.1.9-138.3.8-207.4 0-33.5-.4-60.4-28-60.7-61.5-.6-60.5-.7-121.1 0-181.7.4-33.4 27.9-59.8 61.3-60.9 4.5-.1 9 0 10.9 0 4.2-10.2 7.2-17.9 10.2-25.6zM65.9 167.4c0 46-.1 90.6 0 135.2.1 25.9 15.6 41.4 41.9 41.4 64.8.1 129.7.1 194.5 0 26.8-.1 42-15.6 42-42.7.1-40.8 0-81.6 0-122.4 0-3.7-.5-7.4-.8-11.6-92.5.1-184.2.1-277.6.1zm50.2-74.6C81 84.2 58.4 117 67.8 140.3H343c4.6-33.6-17.5-54.9-49.1-47 0 7 1.6 14.8-.5 21.5-1.7 5.4-7.1 12.3-12 13.4-8.5 1.8-12.8-5.1-13-13.6-.2-7.5 0-15.1 0-22.6H141.8c0 7.1-.1 13.5 0 19.8.1 9.2-2.5 17-13.1 16.8-10.7-.2-12.7-8.4-12.6-17.4.1-6 0-11.9 0-18.4z"/><path d="M128.2 230.3c-4.7 0-10.3 1.6-13.8-.4-4.4-2.6-10.2-8.5-9.7-12.2.7-4.7 6.5-11 11.2-12.2 8-2 16.9-.9 25.4-.5 7.9.3 12.8 4.6 12.7 12.9-.1 8.3-5.2 12.2-13 12.7-4.2.3-8.5 0-12.8 0v-.3zM282.3 204.9c18.3 0 24.9 3.4 23.8 13.4-1.6 15.3-13.7 12-23.6 12.4-4.2.2-8.5.2-12.8 0-8.5-.4-15.1-4.8-13.1-13.2 1.2-4.9 7.9-9.3 13-12.2 3.4-1.9 8.5-.4 12.7-.4zM205 230.5c-4.7 0-10.4 1.7-13.8-.4-4.8-2.8-10.3-8.3-10.8-13-.3-3.6 6.2-10.3 10.7-11.4 8.1-1.9 17.3-2.1 25.3-.2 5.3 1.3 12.4 7 13.4 11.8 1.7 8.1-4.8 13-13.3 13.3-3.8.2-7.7 0-11.5 0v-.1zM205.3 306.8c-5.1-.2-10.9.9-15.1-1.1-4.3-2-10-7.4-9.8-10.9.3-4.5 5.2-11.6 9.3-12.5 8.9-2.1 18.9-2.5 27.8-.6 5 1.1 8.8 8.2 13.1 12.6-4.6 4.1-8.7 8.9-13.9 12-2.9 1.7-7.5.3-11.3.3-.1 0-.1.1-.1.2zM129.2 306.5c-3.9 0-7.7.2-11.6 0-7.8-.4-13.4-3.7-13.6-12.2-.3-8.4 4.7-12.7 12.7-13.1 8.1-.5 16.3-.4 24.4 0 7.8.4 13.1 4.4 13 12.8-.1 8.4-5.5 12.1-13.3 12.5-3.9.1-7.8 0-11.6 0zM281.3 306.5c-3.9 0-7.7.2-11.6 0-7.8-.4-13.3-3.8-13.6-12.3-.2-8.4 4.9-12.6 12.7-13.1 8.1-.5 16.3-.4 24.4 0 7.9.4 13.1 4.5 13 12.9-.1 8.4-5.5 12-13.4 12.5-3.8.1-7.6 0-11.5 0z"/></svg>