<svg xmlns="http://www.w3.org/2000/svg" viewBox="0 0 410 410" style="enable-background:new 0 0 410 410" xml:space="preserve"><path d="M396 136.8c-12.6 5.6-24.9 11.6-37.7 16.6-46.6 18.2-93.2 36.4-140.1 53.7-7.1 2.6-16.9 3.1-23.9.5-54.8-20.3-109.3-41.3-163.6-62.9-6.3-2.5-10.6-10-15.9-15.1 5.2-5.2 9.6-12.6 15.9-15.1 54.3-21.6 108.8-42.6 163.5-63 6.7-2.5 15.8-2.5 22.5 0C271.6 71.9 326 93 380.4 114.2c5.7 2.2 10.4 7 15.6 10.7v11.9zm-329.2-7.2c30.5 11.8 59.7 20.5 86.4 34.1 36 18.4 69.1 18.2 105-.1 26.5-13.5 55.4-22.2 86-34.1-46.1-17.8-89-34.4-132-50.8-3.4-1.3-8.1-1.9-11.4-.7-43.9 16.6-87.7 33.7-134 51.6zM396 297.8c-5.6 3.8-10.8 8.8-17 11.2-53.5 20.9-107.1 41.7-161 61.6-7.5 2.8-17.7 2.7-25.2-.1C139 350.6 85.4 330 32 308.8c-6.7-2.7-11.5-10.4-17.1-15.8 5.8-5.3 10.8-11.8 17.4-15.7 21.2-12.5 42.6-13.5 64.4 3.4-9.3 4.1-18.3 8.1-29.1 12.8 45.3 17.5 88.7 34.4 132.2 50.9 3.4 1.3 8.1 1.3 11.5 0 43.5-16.5 86.8-33.4 132.4-51-11-4.7-19.9-8.4-29.3-12.4 29.5-24.1 55.6-9.5 81.7 4.9-.1 3.9-.1 7.9-.1 11.9z"/><path d="M396 217.3c-6.8 3.8-13.3 8.5-20.5 11.3-52.1 20.3-104.2 40.6-156.7 59.9-7.9 2.9-18.8 2.8-26.7-.1-53.9-19.9-107.4-40.7-160.7-61.9-6.4-2.5-11-9.6-16.4-14.6 5.6-5.4 10.4-11.9 16.8-15.9 21.7-13.4 43.7-13.5 65.4 2.9-8.5 3.8-17.2 7.5-29 12.7 8.9 3.6 14.9 6.3 21.1 8.6 35.1 13.5 70.2 27.1 105.4 40.4 4.4 1.7 10.1 4.1 13.9 2.7 43.9-16.3 87.5-33.3 134.6-51.4-11.9-5.3-20.6-9.1-29.7-13.2 31.6-17.9 54.3-15.9 82.6 6.7-.1 4-.1 7.9-.1 11.9z"/></svg>