<svg xmlns="http://www.w3.org/2000/svg" viewBox="0 0 231.52 405.18"><path d="M403.29,96.12l0,.1s.25.57.51,1.14c.32.73,2,4.75,2.51,5.92.6,1.48,5.28,13.2,7.33,20.86,3.43,12.86.69,23.39.41,41.08-.35,21.88-6.28,27.52-28.79,27.87-7.91.12-15.83.37-23.73.08-11.11-.4-16.77,3.78-15.67,15.72.66,7.2.12,14.51.12,23.42,14.43,0,27.48-.26,40.51.06,17.69.43,25.07,7.46,25.54,25.12.48,17.92.5,35.88-.13,53.79-.56,16.2-7.41,22.47-23.87,22.9-13.12.35-26.25.07-41.2.07-.32,6.45-.82,12-.83,17.51-.07,40.09,0,80.18-.07,120.27-.06,21.86-6.64,28.6-28.07,28.84-16.88.19-33.77.3-50.64,0-18.85-.37-25.66-7.24-25.74-26-.17-40.62-.06-81.24-.06-121.86v-18.7H206.86c-14.68,0-22.74-7-22.81-22-.09-19-.37-38,.06-57,.36-16,7.25-22.37,23.77-22.87,10.47-.32,21-.06,33.73-.06,0-11.89-.07-22.77,0-33.64,0-6.5,7.18-58.95,39.44-83.82,16-12.33,34.81-17.59,34.81-17.59,2.11-.59,3.87-1,5-1.26h77.28c1.09,0,2.45,0,3.28,0a2.81,2.81,0,0,1,1.63,0ZM265,475.59h56.75V457.53c0-41.67-.11-83.34.05-125,.07-18,3.52-21.31,21.13-21.46,14.58-.13,29.15,0,43.78,0v-54.6c-16.39,0-31.63,0-46.86,0-11.37,0-18.08-5.21-18-17.1.09-12.65-.23-25.37,1-37.91,2.15-21.59,10.24-29.55,32.15-31.6,11.33-1.06,22.83-.18,34.59-.18V119.57c-5.45-.3-10.08-.88-14.69-.75-14.74.39-29.61,0-44.19,1.81-37.18,4.69-60.65,29.34-64.06,67a462.37,462.37,0,0,0-1.5,49c.24,14.26-6.05,20.26-19.93,19.92-12.34-.31-24.69-.07-37-.07V311h29c27.13,0,27.78.62,27.79,27.27C265,383.57,265,428.84,265,475.59Z" transform="translate(-183.88 -95.87)"/></svg>