<svg xmlns="http://www.w3.org/2000/svg" viewBox="0 0 406.29 406.47"><path d="M276,95h50.79c2.32,1,4.55,2.46,7,2.91,71.7,13.29,122.87,53.43,152.94,119.4,8.4,18.43,12,39,17.87,58.64v47.62c-1.08,3.4-2.6,6.73-3.18,10.22C482.62,446.24,368.2,522.46,257.24,496.31c-93.37-22-158.32-102-159-195.92-.69-94.34,63.93-176.58,156.81-199.64C262.06,99,269,96.92,276,95ZM250.66,390.53c-8.06-3.35-12.33-5.25-16.69-6.93-58.31-22.44-82-87.14-52.83-142.86,3.85-7.36,5.11-16.61,5.59-25.1.89-15.76-2.51-33.72,12.68-43.63,15.51-10.11,29.87,1.88,44.5,7.37,9.21,3.45,19.62,4.58,29.57,5,18.41.73,36.88.67,55.29-.06,10-.4,20.42-1.25,29.59-4.73,14.62-5.55,28.87-17.48,44.52-7.75s12.06,27.65,13.11,43.37c.6,9,2.05,18.7,6.07,26.58,24.84,48.79,10.46,104-36.06,133.08-9.57,6-20.35,10-28,13.74,1.56,26.67,3,51.26,4.42,75.82,72.84-17.64,126-103.62,116.67-188.63-9.52-86.53-86.63-155.22-175.92-156.71C215.2,117.6,136.75,184.66,124,272.19c-12.21,84,40.23,171,116.18,192.47V434.83c-25.16,4.09-42.06-6.44-54.73-25.78-2.56-3.9-5.76-8.57-9.75-10.14-14.25-5.62-11.51-16.19-10.07-27.33,20,.37,30.41,13.19,42,26,6.27,6.93,17.11,12.89,26,13.08C238.84,410.78,244.26,398.57,250.66,390.53Zm138.53-199c-9,4.33-17.33,7.37-24.58,12.1-10.86,7.1-21.44,8.29-34.41,6.09-15.9-2.7-32.92-4.11-48.61-1.32-19.37,3.45-36.13,2.69-52.08-9.47-4.25-3.24-10.22-4.23-18.14-7.33,0,9.81-1,17.13.21,24.09,2.12,12.61-.1,23.28-7,34.47-26.23,42.71-8.22,94.34,38.83,111.63,13.67,5,28.3,7.45,44,11.45-3.28,5.07-7.32,9.47-9.24,14.66-4.62,12.52-9.59,25.18-11.86,38.24-2,11.29.27,23.24-.61,34.81-.84,11.2,3.88,15.3,14.41,15.12,14.77-.26,29.55-.24,44.33-.18,9.33,0,12.65-4.1,12.52-13.63-.41-30.43,4.39-61.86-20-86.74-.54-.56-.18-2-.22-2.74,13.84-3.46,28-5.84,41.29-10.56,41.43-14.7,62.08-53.81,47.26-95-7.84-21.75-18.67-41.85-13.83-65.94C391.92,199.07,390.39,196.41,389.19,191.57Z" transform="translate(-98.23 -95)"/></svg>