<svg xmlns="http://www.w3.org/2000/svg" viewBox="0 0 512.11 512"><path d="M44,408V336l.14-11.29c-.19-3.21-.37-8.23-.14-14.38.28-7.44.94-10.5,1.12-16.54A99.45,99.45,0,0,0,44,276V192c1.4-6.2,3.39-12.33,4.11-18.6C55.63,108,97.36,62.26,161.5,49.19c7.54-1.53,15-3.45,22.5-5.19H412c5.69,1.27,11.32,3,17.07,3.72,63.15,7.32,108.41,47.85,122,109.35,1.4,6.37,3.27,12.62,4.92,18.93V420c-1.46,6.31-3,12.6-4.37,18.93C539,497,505.28,535,446.47,549c-10.14,2.4-20.31,4.69-30.47,7H180c-4.18-1.42-8.25-3.43-12.54-4.18C101.34,540.2,59.66,498.35,48.84,432.6,47.49,424.36,45.63,416.2,44,408ZM508.31,300.1h.12c0-37.28,1.38-74.62-.32-111.82C505.43,129.49,472.9,95,413.85,93.09q-112.74-3.68-225.7,0c-56,1.76-90.07,31.91-92.79,87.5-3.93,80.31-3.63,161.1.36,241.42,2.63,53.14,37.33,83.69,90.58,85.17,76.52,2.13,153.18,2.27,229.69,0,56-1.69,89.39-37,92-93.23C509.72,376,508.31,338,508.31,300.1Z" transform="translate(-43.89 -44)"/><path d="M432.17,299.89c.06,72.94-59.38,132.23-132.11,131.77-71.64-.46-130.67-59.81-130.77-131.49-.11-72.39,60.13-132.31,132.5-131.8C373.76,168.87,432.11,227.74,432.17,299.89Zm-131.51,85c47.48.09,85.29-37.32,85.51-84.59a84.57,84.57,0,0,0-85-85.1c-47.57-.07-85.21,37.23-85.32,84.56A84.4,84.4,0,0,0,300.66,384.89Z" transform="translate(-43.89 -44)"/><path d="M468.06,163.17a30.18,30.18,0,0,1-30.31,30.41c-17.18,0-30.24-13-30.23-30.28,0-16.92,13.54-30.73,30.12-30.74S468,146.47,468.06,163.17Z" transform="translate(-43.89 -44)" style="fill:#020202"/></svg>