<svg xmlns="http://www.w3.org/2000/svg" viewBox="0 0 496.22 512"><path d="M220,556c-2.19-9.47-6.23-18.92-6.27-28.4-.47-98-.33-195.9-.26-293.85,0-26.41,3-29.2,30.23-29.24,22,0,44-.89,65.94.39,9.79.57,19.22,5.94,29,8.18a27.63,27.63,0,0,0,14.24-.64C454.3,178.14,547.73,244,548.53,350.87q.68,89.94-.3,179.9c-.1,8.44-5.36,16.82-8.23,25.23H432c-3.05-9-8.6-17.91-8.75-26.94-.85-51.29-.29-102.6-.46-153.91-.12-33.41-15.5-51.95-42.19-51.57-25.93.37-40.49,18.53-40.54,50.91-.08,52,.34,104-.38,155.91-.12,8.57-5,17.07-7.68,25.6Zm24.55-320.09v289h65.59c0-9.16,0-17,0-24.8.26-48-1-96,1.3-143.84,1.77-36.95,35.78-64.84,72-63.37a71.25,71.25,0,0,1,68.6,67.68c.51,10.63.21,21.31.21,32,0,43.78,0,87.56,0,132.4h64.51c0-67,5.41-133.3-1.38-198.29-8.37-80-101.59-119.33-170-76.9-26,16.13-29.29,15-38.29-13.83Z" transform="translate(-52.61 -44)"/><path d="M60,556c-2.45-9.35-7-18.68-7-28-.52-98.55-.36-197.11-.29-295.67,0-24.28,3.5-27.69,27.64-27.78,25.31-.09,50.62.33,75.92-.15,15.64-.3,23.53,5.68,23.5,22.12-.2,102.55.06,205.11-.43,307.66,0,7.3-4.77,14.57-7.32,21.86ZM84.4,235.88V524.61h63.26V235.88Z" transform="translate(-52.61 -44)" style="fill:#010101"/><path d="M132,44c3.38,1.87,6.71,3.85,10.16,5.59,27.88,14.1,42.31,42.66,35.67,70.7-7,29.38-32.27,50-61.49,50.11-29,.1-54.87-20.8-61.62-49.86C48.07,91.85,61.86,64.17,90,49.72c3.42-1.76,6.7-3.81,10-5.72Zm16.76,63.57C149,89,135,74.73,116.5,74.56S83.66,88.41,83.55,106.93s13.94,32.93,32.3,33.11S148.56,126.14,148.76,107.57Z" transform="translate(-52.61 -44)" style="fill:#010101"/></svg>