<?xml version="1.0" encoding="iso-8859-1"?>
<!-- Generator: Adobe Illustrator 17.0.0, SVG Export Plug-In . SVG Version: 6.00 Build 0)  -->
<svg version="1.2" baseProfile="tiny" id="Capa_1" xmlns="http://www.w3.org/2000/svg" xmlns:xlink="http://www.w3.org/1999/xlink"
	 x="0px" y="0px" width="250.333px" height="195.667px" viewBox="0 0 250.333 195.667" xml:space="preserve">
<path fill="#FFFFFF" d="M206.973,56.726l-11.518-11.518h-19.937L164,56.726v5.759l5.759,5.759L164,74.003v5.759l11.518,11.518h19.937l11.518-11.518
	v-5.759l-5.759-5.759l5.759-5.759V56.726z M195.455,79.762h-19.937v-5.759h8.419h4.266h7.251V79.762z M195.455,62.485h-19.937
	v-5.759h19.937V62.485z"/>
<polygon fill="#FFFFFF" points="44.903,129.733 67.864,152.126 67.864,115.955 44.903,115.955 "/>
<polygon fill="#FFFFFF" points="67.864,68.168 128.861,68.168 118.731,78.298 118.762,78.328 98.382,98.709 109.906,110.233 109.928,110.233 
	151.821,152.126 184.377,152.126 130.918,98.667 161.065,68.521 137.752,45.208 64.033,45.208 44.903,64.338 44.903,81.531 
	67.864,81.531 "/>
<polygon fill="#E0040B" points="94.329,102.762 94.327,102.764 90.274,98.711 101.712,87.273 67.864,87.273 67.864,87.262 
	44.903,87.262 44.903,110.224 101.791,110.224 "/>
<polygon fill="#FFFFFF" points="250.526,68.125 250.526,47.729 250.527,47.728 250.526,47.727 250.526,47.726 250.525,47.726 204.338,1.539 
	204.328,1.549 204.328,1.539 171.968,1.539 207.244,36.815 207.194,36.865 227.566,57.238 227.566,68.125 227.566,140.315 
	194.828,173.053 65.428,173.053 88.388,196.013 204.328,196.013 204.328,196.003 204.338,196.013 250.525,149.827 250.526,149.827 
	250.526,149.825 250.527,149.824 250.526,149.823 250.526,141.991 "/>
<polygon fill="#FFFFFF" points="45.452,161.106 24.662,140.315 24.661,98.776 24.662,57.238 57.4,24.499 186.822,24.499 163.862,1.539 47.9,1.539 
	47.9,1.539 47.9,1.549 47.89,1.539 1.703,47.726 1.701,47.726 1.701,47.727 1.701,47.728 1.701,47.729 1.701,68.125 1.701,68.125 
	1.701,98.776 1.701,129.427 1.701,129.427 1.701,149.823 1.701,149.824 1.701,149.825 1.701,149.827 1.703,149.827 47.89,196.013 
	47.9,196.003 47.9,196.013 47.9,196.013 80.282,196.013 45.413,161.145 "/>
</svg>
