<svg data-name="phone" xmlns="http://www.w3.org/2000/svg" viewBox="0 0 700.32 700.32">
    <path d="M566.4 700.32h-31.68a27.06 27.06 0 0 0-2.81-.38 538.7 538.7 0 0 1-60.39-5.28 520.34 520.34 0 0 1-62.45-12.72q-144.12-39-249.47-144.83A543.17 543.17 0 0 1 77.87 431.8a547.72 547.72 0 0 1-62.08-152.2 539.75 539.75 0 0 1-11.11-61.3c-1.53-12.55-2.7-25.12-3.31-37.74-.34-7-.62-14.06-.95-21.09a8.12 8.12 0 0 0-.42-1.55v-14.88a7.75 7.75 0 0 0 .41-1.59c.2-4 .35-8 .51-12 .54-12.95 1.18-25.89 2.91-38.74a63.3 63.3 0 0 1 18.41-37.37c10.72-10.69 23.46-17.4 38.65-18.83 6.6-.61 13.25-.89 19.88-.91 34.63-.09 69.27 0 103.9 0 6.89 0 13.8-.08 20.58 1.14 21.35 3.86 37.3 15.3 47.39 34.57a108.77 108.77 0 0 1 5.58 13q18.09 49.43 36 98.89c4 11 7.94 22 11.7 33 3.47 10.2 4.89 20.67 3.19 31.43-2.34 14.86-8.66 27.67-19.68 38a97.79 97.79 0 0 1-16.44 12c-8.81 5.37-17.67 10.65-26.5 16-.73.44-1.43.93-2.21 1.43a368.12 368.12 0 0 0 143.55 143.48c.59-.95 1-1.69 1.49-2.44 4-6.65 7.92-13.34 12-19.94 3.19-5.17 6.42-10.33 9.85-15.33a61.54 61.54 0 0 1 23.35-20.53c13.13-6.59 26.9-8.92 41.44-6.2a123.35 123.35 0 0 1 19.31 5.62q54.19 19.66 108.38 39.4c8.47 3.1 17 6.16 25.25 9.78 15.33 6.73 26 18.27 32.82 33.46 4 8.84 5.37 18.24 5.39 27.82q.15 59 .06 118.06a92.47 92.47 0 0 1-1.65 19.09c-4.37 20.57-16.33 35.43-34.66 45.29-8.75 4.71-18.37 6.47-28.14 7.22-11.4.87-22.82 1.42-34.23 2.13a18.6 18.6 0 0 0-2.09.35Zm33.77-69.39c.08-1 .22-1.81.23-2.67.06-3.92.12-7.83.12-11.75q0-51.72-.08-103.44c0-7.44 1.35-5.51-5.66-8.11-21.88-8.1-43.83-16-65.76-24q-29.52-10.74-59-21.41c-1.56-.56-3.17-1-4.94-1.56-2.1 3.37-4.16 6.6-6.13 9.88-9.76 16.24-19.65 32.41-29.21 48.77a33.67 33.67 0 0 1-43.91 13.56c-4.18-2-8.4-3.93-12.55-6-58.89-29.23-108.46-69.87-149.16-121.4a429.94 429.94 0 0 1-53.6-87.84 33.24 33.24 0 0 1-3.36-15.56c.6-12.23 6.13-21.64 16.64-28 4.92-3 9.88-5.92 14.81-8.89q19.94-12 39.87-24c1.42-.85 2.78-1.82 4.3-2.82-.75-2.25-1.4-4.38-2.16-6.46q-18.19-50.16-36.41-100.29c-3.14-8.64-6.29-17.27-9.51-25.88-1.09-2.88-.66-2.6-3.72-2.66q-4.2-.08-8.4-.08H83.25c-3.6 0-7.19 0-10.79.11-.86 0-1.71.16-2.52.24C57.83 209.8 83.27 359.96 200.67 483.23c117.67 123.57 271.98 161.38 399.5 147.7Z"/>
    <path fill="#E0040B" d="M700.32 302.88c-.27 1.23-.47 2.48-.82 3.68-3.9 13.46-12.7 21.89-26.44 24.49a33 33 0 0 1-38.23-24.92c-.83-3.48-1.12-7.1-1.61-10.66a263.89 263.89 0 0 0-22.7-76.67c-35.83-76.46-103.36-128.38-180.9-146.68a262.83 262.83 0 0 0-31.65-5.4c-15.14-1.68-27.52-14.58-29-29.77A33.46 33.46 0 0 1 398.21.46a11.34 11.34 0 0 0 1.59-.43h4.8a11.26 11.26 0 0 0 1.58.44c2.93.38 5.87.69 8.8 1.1a331.42 331.42 0 0 1 61.9 14.83c50.34 17.4 94.27 44.89 131.33 83.11 39.77 41 67.08 89.22 82.37 144.23a275.53 275.53 0 0 1 9.33 48.42 10.16 10.16 0 0 0 .41 1.6Z"/>
    <path fill="#E0040B" d="M535.11 331.94a33.23 33.23 0 0 1-33.51-25.09c-1.59-6.53-3-13.09-5.16-19.46a133.28 133.28 0 0 0-100.4-87.68c-15.81-3.14-27-16.22-27.18-32.39a33.2 33.2 0 0 1 29-33.5 42.69 42.69 0 0 1 14.74 1.15c38.4 8.48 71.65 26.49 99.4 54.36 28.67 28.79 46.84 63.27 54.69 103.13a33.26 33.26 0 0 1-29.64 39.34Z"/>
</svg>
