<?xml version="1.0" encoding="utf-8"?>
<!-- Generator: Adobe Illustrator 17.0.0, SVG Export Plug-In . SVG Version: 6.00 Build 0)  -->
<svg version="1.2" baseProfile="tiny" id="Layer_1" xmlns="http://www.w3.org/2000/svg" xmlns:xlink="http://www.w3.org/1999/xlink"
	 x="0px" y="0px" width="759.905px" height="231.971px" viewBox="0 0 759.905 231.971" xml:space="preserve">
<path fill="#FD3528" d="M217.653,102.815c0,0.437-0.001,0.874-0.004,1.311c-0.261,0.163-0.521,0.326-0.78,0.489
	c0.246,0.088,0.492,0.177,0.739,0.265c-0.048,0.316-0.097,0.631-0.146,0.947c-0.472,0.782-0.943,1.564-1.414,2.346
	c-11.609,6.826-23.141,13.789-34.874,20.394c-3.493,1.967-4.865,4.159-4.772,8.226c0.281,12.323-0.005,24.658,0.168,36.985
	c0.05,3.585-1.072,5.805-4.257,7.629c-24.996,14.316-49.987,28.645-74.77,43.325c-5.073,3.005-8.837,3.182-14.005,0.093
	c-24.009-14.351-48.287-28.252-72.468-42.314c-0.765-0.473-1.53-0.945-2.295-1.418c-0.609-0.337-1.217-0.673-1.826-1.01
	c-0.677-0.695-1.354-1.391-2.031-2.086c-0.259-0.261-0.341-0.569-0.246-0.924c0.407-1.695,1.167-3.39,1.169-5.086
	c0.065-44.316,0.065-88.633,0.003-132.949c-0.002-1.706-0.728-3.411-1.116-5.116c1.094-1.155,1.995-2.637,3.312-3.415
	C20.512,23.131,32.98,15.741,45.658,8.731c1.869-1.034,5.312-0.981,7.2,0.064c12.672,7.013,25.076,14.51,37.676,21.659
	c2.983,1.693,3.502,3.979,3.494,7.026c-0.064,26.327-0.037,52.655-0.037,78.982c0,1.812,0,3.624,0,6.843
	c12.024-7.12,23.209-13.744,34.393-20.368c0.537-1.212,1.529-2.419,1.54-3.635c0.114-12.542,0.112-25.087,0.007-37.629
	c-0.011-1.316-0.89-2.625-1.366-3.937c1.261-1.385,2.28-3.18,3.821-4.09c12.137-7.168,24.316-14.272,36.643-21.106
	c1.863-1.033,5.117-1.566,6.779-0.636c13.589,7.603,26.954,15.608,40.386,23.491c0.495,2.248,0.99,4.495,1.484,6.743
	c-0.009,0.321-0.019,0.642-0.031,0.963c-0.292,0.118-0.582,0.236-0.872,0.354c0.299,0.085,0.597,0.17,0.896,0.255
	c0.005,1.09,0.009,2.179,0.014,3.269c-0.558,1.22-1.596,2.44-1.597,3.66c-0.005,9.419,0.163,18.84,0.378,28.257
	c0.017,0.755,0.79,1.492,1.211,2.237c-0.009,0.33-0.018,0.661-0.03,0.99c-0.254,0.164-0.506,0.329-0.757,0.494
	C217.146,102.683,217.4,102.749,217.653,102.815z M52.548,61.043c-0.522,1.395-1.494,2.788-1.499,4.186
	c-0.094,23.525-0.093,47.05-0.005,70.575c0.006,1.482,0.903,2.96,1.385,4.44c-0.003,0.849-0.007,1.698-0.01,2.547
	c0.001,0.459,0.001,0.917,0.002,1.376c-0.077,0.47-0.154,0.94-0.231,1.416c-0.162,0.199-0.324,0.399-0.597,0.734
	c0.322-0.255,0.508-0.402,0.693-0.549c1.47-0.318,3.13-0.3,4.378-1.007c8.956-5.078,17.76-10.425,26.767-15.407
	c2.726-1.508,3.633-3.246,3.62-6.282c-0.107-25.752-0.056-51.504-0.077-77.256c-0.001-1.382-0.229-2.764-0.432-5.065
	C74.701,47.818,63.625,54.431,52.548,61.043z M86.997,218.427c0-13.038,0.131-24.86-0.151-36.673
	c-0.039-1.641-1.763-3.834-3.312-4.752c-10.883-6.458-21.826-12.83-32.968-18.826c-3.822-2.057-4.962-4.57-4.939-8.708
	c0.151-26.989-0.128-53.982,0.238-80.967c0.081-5.945-1.521-9.352-6.874-12.074c-9.117-4.637-17.829-10.072-27.668-15.721
	c0,2.816,0,4.581,0,6.346c0,40.818,0.061,81.637-0.097,122.454c-0.015,3.86,1.155,5.976,4.478,7.852
	c15.514,8.756,30.883,17.766,46.309,26.677C70.038,208.669,78.073,213.286,86.997,218.427z M56.414,153.289
	c10.917,6.208,20.82,11.669,30.524,17.467c2.721,1.626,4.629,1.371,7.201-0.121c19.587-11.361,39.258-22.578,58.896-33.852
	c4.077-2.34,8.125-4.73,12.837-7.475c-11.258-6.515-21.551-12.6-32.02-18.366c-1.294-0.713-3.83-0.271-5.271,0.549
	c-18.67,10.622-37.253,21.398-55.843,32.161C67.595,146.629,62.502,149.691,56.414,153.289z M93.983,217.581
	c1.062-0.104,1.436-0.035,1.687-0.18c23.748-13.717,47.516-27.401,71.155-41.303c1.41-0.829,2.486-3.402,2.528-5.191
	c0.237-10.306,0.129-20.621,0.097-30.932c-0.004-1.218-0.252-2.434-0.458-4.294c-24.727,14.246-48.908,28.146-73.014,42.173
	c-1.014,0.59-1.895,2.348-1.909,3.573C93.926,193.387,93.983,205.351,93.983,217.581z M135.189,64.244
	c0,13.095-0.084,25.18,0.129,37.26c0.021,1.21,1.615,2.764,2.866,3.518c6.981,4.208,14.081,8.22,21.142,12.297
	c3.218,1.858,6.439,3.712,10.254,5.911c0-9.45-0.693-17.99,0.184-26.367c0.992-9.476-1.518-15.753-10.916-19.186
	c-4.616-1.686-8.666-4.911-12.992-7.405C142.613,68.402,139.339,66.586,135.189,64.244z M176.398,123.311
	c11.588-6.705,22.136-12.693,32.508-18.972c1.156-0.7,1.81-3.044,1.843-4.644c0.178-8.487,0.084-16.98,0.084-25.471
	c0-3.043,0-6.086,0-10.069c-11.562,6.686-22.068,12.707-32.485,18.877c-0.943,0.559-1.856,2.078-1.868,3.161
	C176.349,98.135,176.398,110.077,176.398,123.311z M138.804,58.042c11.468,6.636,22.016,12.86,32.736,18.77
	c1.141,0.629,3.501-0.196,4.939-0.991c6.556-3.624,12.985-7.477,19.459-11.251c3.498-2.039,6.992-4.084,11.184-6.533
	c-11.397-6.634-21.855-12.763-32.383-18.769c-0.834-0.476-2.394-0.517-3.215-0.052C160.855,45.255,150.26,51.421,138.804,58.042z
	 M83.309,34.537C71.87,27.908,61.278,21.672,50.538,15.701c-1.021-0.568-3.153,0.185-4.448,0.903
	C39.537,20.24,33.087,24.06,26.609,27.83c-3.622,2.108-7.227,4.246-11.514,6.768c9.777,5.677,18.85,10.601,27.539,16.129
	c4.589,2.92,8.131,3.318,12.926,0.162C64.268,45.156,73.515,40.242,83.309,34.537z"/>
<path fill="#FD3124" d="M394.835,106.868c0-3.917,0-6.518,0-9.491c6.012,0,11.727,0,17.796,0c0,25.602,0,51.137,0,77.082
	c-5.69,0-11.399,0-17.667,0c0-2.674,0-5.37,0-9.076c-2.593,2.29-4.291,4.005-6.2,5.44c-11.62,8.735-28.688,7.942-41.86-1.875
	c-12.367-9.217-18.372-27.366-14.379-43.461c4.01-16.164,16.234-27.549,32.335-30.023C376.42,93.688,386.174,97.145,394.835,106.868
	z M394.793,135.688c-0.076-13.814-10.19-24.483-23.122-24.389c-12.603,0.091-22.251,10.766-22.271,24.641
	c-0.02,14.038,9.909,24.77,22.774,24.617C385.105,160.404,394.869,149.669,394.793,135.688z"/>
<path fill="#FD3125" d="M557.962,174.541c-5.126,0-10.252,0-15.897,0c-0.198-2.616-0.39-5.154-0.656-8.667
	c-9.203,9.316-19.596,12.74-31.727,10.221c-9.167-1.904-16.761-6.457-22.522-13.818c-13.101-16.738-11.834-40.859,2.816-55.824
	c14.195-14.501,32.722-14.934,51.415-0.832c0.215-2.86,0.407-5.409,0.626-8.328c5.405,0,10.673,0,15.941,0
	C557.96,123.042,557.961,148.792,557.962,174.541z M541.731,136.18c0.115-13.892-9.743-24.723-22.593-24.823
	c-12.993-0.102-22.857,10.383-22.759,24.469c0.093,13.397,7.625,23.675,21.372,24.974
	C530.709,162.024,541.615,150.162,541.731,136.18z"/>
<path fill="#FD3225" d="M668.807,142.811c0.876,13.319,14.325,22.485,27.488,18.609c5.372-1.582,10.377-5.105,14.91-8.578
	c2.6-1.992,3.928-2.152,6.208-0.129c2.702,2.398,5.662,4.506,8.5,6.732c-21.017,28.111-59.557,18.439-70.301-1.63
	c-7.965-14.879-6.854-34.649,3.756-47.983c10.175-12.788,26.859-17.89,42.679-12.904c17.633,5.558,27.989,24.176,26.634,42.954
	c-0.24,3.33-2.53,2.922-4.667,2.923c-16.49,0.01-32.979,0.006-49.469,0.006C672.734,142.811,670.924,142.811,668.807,142.811z
	 M710.97,128.753c-0.789-11.511-9.417-19.147-21.132-19.115c-11.898,0.032-20.278,7.6-20.863,19.115
	C682.873,128.753,696.759,128.753,710.97,128.753z"/>
<path fill="#FD3125" d="M568.564,97.005c5.748,0,10.754-0.306,15.682,0.183c1.511,0.15,3.459,2.22,4.099,3.847
	c6.635,16.886,13.042,33.862,19.521,50.81c0.412,1.078,0.889,2.131,1.735,4.147c1.31-3.306,2.346-5.837,3.321-8.391
	c5.933-15.551,11.925-31.081,17.711-46.687c1.091-2.944,2.495-4.205,5.735-3.988c4.449,0.297,8.933,0.074,14.264,0.074
	c-2.654,6.939-5.078,13.249-7.482,19.566c-6.866,18.044-13.794,36.065-20.517,54.161c-1.17,3.149-2.71,4.442-6.146,4.197
	c-6.084-0.435-13.62,1.671-17.894-1.216c-4.094-2.765-4.868-10.504-7.01-16.092c-7.092-18.494-14.145-37.004-21.205-55.51
	C569.855,100.737,569.394,99.345,568.564,97.005z"/>
<path fill="#FE3125" d="M291.617,157.042c9.952,0.181,19.903,0.366,29.855,0.538c1.8,0.031,3.6,0.004,5.782,0.004
	c0,5.741,0,11.111,0,16.888c-18.059,0-36.065,0-54.793,0c0-1.788,0-3.561,0-5.334c0-35.26-0.021-70.521,0.065-105.781
	c0.004-1.683,0.962-3.363,1.475-5.044c1.703,0.561,3.397,1.579,5.109,1.609c10.845,0.191,10.846,0.119,10.846,11.137
	c0,26.933-0.031,53.866,0.071,80.798C290.035,153.588,291.064,155.314,291.617,157.042z"/>
<path fill="#FE3125" d="M446.053,114.729c-0.289,1.752-0.821,3.503-0.828,5.256c-0.064,16.485-0.038,32.971-0.038,49.457
	c0,1.622,0,3.243,0,5.144c-6.077,0-11.664,0-17.676,0c0-25.647,0-51.184,0-77.155c15.93,0,31.968,0,49.202,0
	c-0.485,5.72-0.97,11.437-1.456,17.151c-0.952-0.527-1.895-1.493-2.853-1.508c-7.92-0.125-15.844-0.127-23.764,0.001
	C447.769,113.089,446.915,114.153,446.053,114.729z"/>
<path fill="#FE3125" d="M757.817,59.981c0.096,4.318,0.273,8.637,0.276,12.955c0.024,31.967,0.013,63.933,0.013,95.9
	c0,1.795,0,3.59,0,5.705c-5.711,0-10.972,0-16.233,0c0.014-13.944,0.035-27.889,0.039-41.833
	c0.007-22.577,0.089-45.154-0.081-67.729c-0.029-3.912,1.039-5.396,5.035-5.048C750.49,60.245,754.165,59.986,757.817,59.981z"/>
<path fill="#FE5248" d="M4.728,33.922c0.388,1.705,1.114,3.41,1.116,5.116c0.062,44.316,0.062,88.633-0.003,132.949
	c-0.002,1.696-0.762,3.391-1.169,5.086c-0.16-1.467-0.46-2.934-0.461-4.401C4.186,127.881,4.185,83.089,4.213,38.297
	C4.214,36.839,4.549,35.38,4.728,33.922z"/>
<path fill="#FE1C0F" d="M757.817,59.981c-3.652,0.006-7.326,0.265-10.95-0.051c-3.996-0.348-5.064,1.136-5.035,5.048
	c0.17,22.575,0.088,45.153,0.081,67.729c-0.004,13.944-0.026,27.889-0.039,41.833c-0.615-0.87-1.766-1.738-1.767-2.609
	c-0.058-37.385-0.014-74.769,0.032-112.154c0-0.305,0.196-0.61,0.54-1.619c5.157,0,10.57-0.038,15.98,0.079
	C757.057,58.245,757.431,59.373,757.817,59.981z"/>
<path fill="#FE1B0E" d="M291.617,157.042c-0.553-1.728-1.582-3.455-1.589-5.185c-0.102-26.932-0.071-53.865-0.071-80.798
	c0-11.018-0.001-10.946-10.846-11.137c-1.712-0.03-3.407-1.048-5.109-1.609c5.303-0.072,10.607-0.154,15.91-0.198
	c0.462-0.004,0.925,0.238,1.704,0.452C291.617,91.384,291.617,124.213,291.617,157.042z"/>
<path fill="#FE1C0F" d="M557.962,174.541c-0.001-25.749-0.002-51.499-0.003-77.248c0.609,1.074,1.746,2.145,1.751,3.221
	c0.099,23.638,0.096,47.276-0.006,70.913C559.699,172.468,558.568,173.503,557.962,174.541z"/>
<path fill="#FE1B0E" d="M128.566,57.736c0.476,1.312,1.355,2.621,1.366,3.937c0.105,12.543,0.107,25.087-0.007,37.629
	c-0.011,1.216-1.003,2.424-1.54,3.635C128.445,87.87,128.505,72.803,128.566,57.736z"/>
<path fill="#FD3D31" d="M217.68,101.133c-0.422-0.745-1.194-1.483-1.211-2.237c-0.215-9.418-0.383-18.838-0.378-28.257
	c0.001-1.22,1.039-2.44,1.597-3.66C217.685,78.363,217.682,89.748,217.68,101.133z"/>
<path fill="#FE2012" d="M446.053,114.729c0.862-0.577,1.717-1.641,2.588-1.655c7.92-0.128,15.844-0.126,23.764-0.001
	c0.958,0.015,1.901,0.981,2.853,1.508C465.523,114.632,455.788,114.681,446.053,114.729z"/>
<path fill="#FD3D31" d="M217.68,62.138c-0.495-2.248-0.99-4.495-1.484-6.743C216.691,57.642,217.185,59.89,217.68,62.138z"/>
<path fill="#FD3D31" d="M216.049,108.173c0.471-0.782,0.942-1.564,1.414-2.346C216.992,106.609,216.52,107.391,216.049,108.173z"/>
<path fill="#FE5248" d="M4.918,177.998c0.677,0.695,1.354,1.391,2.031,2.086C6.272,179.388,5.595,178.693,4.918,177.998z"/>
<path fill="#FE5248" d="M8.774,181.094c0.765,0.473,1.53,0.945,2.295,1.418C10.305,182.039,9.54,181.566,8.774,181.094z"/>
<path fill="#FD3D31" d="M217.653,102.815c-0.254-0.066-0.507-0.132-0.761-0.198c0.252-0.165,0.503-0.33,0.757-0.494
	C217.763,102.354,217.764,102.584,217.653,102.815z"/>
<path fill="#FD3D31" d="M217.609,104.88c-0.246-0.088-0.492-0.177-0.739-0.265c0.259-0.163,0.518-0.326,0.78-0.489
	C217.782,104.386,217.768,104.637,217.609,104.88z"/>
<path fill="#FD3D31" d="M217.673,63.709c-0.299-0.085-0.597-0.17-0.896-0.255c0.29-0.118,0.58-0.236,0.872-0.354
	C217.745,63.301,217.752,63.504,217.673,63.709z"/>
<path fill="#FE1B0E" d="M52.548,61.043c-0.04,26.4-0.08,52.799-0.119,79.2c-0.482-1.479-1.379-2.957-1.385-4.439
	c-0.088-23.525-0.089-47.05,0.005-70.575C51.054,63.832,52.026,62.438,52.548,61.043z"/>
<path fill="#FE1B0E" d="M52.419,142.791c0,0.458,0,0.916,0.001,1.375C52.42,143.708,52.42,143.249,52.419,142.791z"/>
<path fill="#FE1B0E" d="M52.287,145.767c-0.186,0.147-0.372,0.294-0.693,0.549c0.272-0.335,0.435-0.534,0.597-0.736
	C52.191,145.577,52.287,145.767,52.287,145.767z"/>
</svg>
