<?xml version="1.0" encoding="iso-8859-1"?>
<!-- Generator: Adobe Illustrator 17.0.0, SVG Export Plug-In . SVG Version: 6.00 Build 0)  -->
<svg version="1.2" baseProfile="tiny" id="Layer_1" xmlns="http://www.w3.org/2000/svg" xmlns:xlink="http://www.w3.org/1999/xlink"
	 x="0px" y="0px" width="783px" height="162px" viewBox="0 0 783 162" xml:space="preserve">
<path fill="#9C5E90" d="M166.656,134.945c3.381,8.417,6.513,16.216,10.121,25.198c-2.38-1.094-3.796-1.636-5.108-2.365
	c-12.511-6.944-24.96-14.002-37.545-20.808c-2.212-1.196-4.972-1.931-7.483-1.941c-31.644-0.128-63.289-0.074-94.933-0.089
	c-16.597-0.008-26.648-10.125-26.659-26.834C5.029,82.291,5.025,56.476,5.05,30.661C5.066,14.388,15.262,4.139,31.562,4.133
	c69.784-0.03,139.569-0.026,209.353-0.001c16.456,0.006,26.768,10.355,26.795,26.867c0.043,25.649,0.039,51.297,0.001,76.946
	c-0.025,16.941-10.13,26.989-27.062,26.998c-22.651,0.012-45.302,0.003-67.952,0.003
	C170.914,134.945,169.132,134.945,166.656,134.945z M73.29,73.264c0.87,2.729,1.343,4.302,1.871,5.856
	c4.851,14.272,10.753,27.98,21.379,39.084c2.95,3.082,6.221,5.937,10.906,4.018c4.868-1.993,5.208-6.466,5.21-10.913
	c0.012-27.284,2.79-54.094,13.437-79.585c2.158-5.167,0.359-9.971-4.406-12.17c-4.741-2.188-9.601-0.546-12.153,4.466
	c-1.804,3.543-3.686,7.19-4.606,11.013c-3.595,14.952-6.821,29.992-10.066,44.475c-0.117-0.266-0.77-1.375-1.103-2.572
	c-2.576-9.282-5.147-18.566-7.599-27.882c-1.28-4.863-0.942-10.948-7.573-12.06c-7.09-1.189-9.184,4.668-11.733,9.5
	C59.802,59.861,52.799,73.254,45.255,87.63c-0.93-3.723-1.736-6.36-2.238-9.054c-2.987-16.011-5.954-32.027-8.814-48.062
	c-0.815-4.572-3.168-7.239-7.899-7.435c-6.716-0.279-10.758,4.367-9.622,11.361c2.104,12.962,3.954,25.99,6.743,38.81
	c3.033,13.944,6.547,27.826,10.739,41.462c3.034,9.87,9.033,10.692,15.241,2.524c3.698-4.866,6.775-10.265,9.655-15.678
	C63.809,92.627,68.174,83.491,73.29,73.264z M124.931,77.983c0.248,1.973,0.372,5.843,1.262,9.528
	c2.858,11.829,9.098,20.733,21.939,23.032c12.173,2.179,21.513-2.621,28.286-12.57c9.013-13.242,12.524-27.886,9.329-43.657
	c-2.368-11.688-8.549-20.551-21.052-23.326c-12.9-2.863-22.369,2.593-29.56,12.792C128.331,53.434,125.236,64.359,124.931,77.983z
	 M253.917,64.961c0-1.664,0.08-3.332-0.013-4.991c-0.817-14.561-9.332-26.138-21.202-28.873
	c-13.297-3.064-24.475,2.394-32.321,15.811c-7.066,12.084-9.481,25.061-7.322,38.876c2.051,13.128,10.173,22.191,22.078,24.743
	c11.324,2.428,21.925-2.447,29.274-13.566C250.817,87.27,253.974,76.578,253.917,64.961z"/>
<path fill="#030303" d="M454.617,34.034c8.765,0,17.054,0,25.759,0c3.27,24.245,6.525,48.374,9.813,72.753
	c-6.593,0-12.715,0-19.548,0c-1.653-15.48-3.318-31.071-4.983-46.662c-0.334-0.057-0.669-0.113-1.003-0.17
	c-3.791,15.547-7.581,31.093-11.41,46.795c-4.509,0-8.786,0-13.454,0c-4.016-15.741-8.064-31.607-12.112-47.473
	c-0.256,0.02-0.512,0.04-0.767,0.06c-1.615,15.802-3.231,31.604-4.852,47.463c-6.318,0-12.269,0-18.687,0
	c3.107-24.392,6.184-48.548,9.268-72.757c8.574,0,16.695,0,25.126,0c2.566,12.228,5.109,24.346,7.652,36.464
	c0.299,0.055,0.597,0.111,0.896,0.166C449.086,58.448,451.856,46.224,454.617,34.034z"/>
<path fill="#030303" d="M502.016,34.021c8.493,0,16.61,0,25.116,0c2.697,12.856,5.379,25.643,8.169,38.942
	c2.959-13.35,5.79-26.124,8.632-38.945c8.7,0,16.989,0,25.7,0c3.267,24.23,6.52,48.36,9.809,72.749c-6.678,0-12.951,0-19.544,0
	c-1.69-15.822-3.374-31.587-5.058-47.351c-0.248-0.021-0.496-0.043-0.744-0.064c-3.819,15.757-7.638,31.514-11.497,47.432
	c-4.378,0-8.678,0-13.388,0c-3.898-15.124-7.825-30.357-11.751-45.59c-0.472,0.089-0.944,0.178-1.415,0.266
	c-1.509,14.947-3.018,29.894-4.56,45.172c-6.132,0-12.188,0-18.728,0C495.83,82.535,498.894,58.507,502.016,34.021z"/>
<path fill="#030303" d="M337.319,68.344c0.755-4.466,1.184-10.16,2.732-15.531c3.838-13.321,14.128-20.731,28.165-20.962
	c15.856-0.261,26.254,6.424,30.836,20.149c3.908,11.706,3.887,23.604,0.294,35.339c-4.598,15.015-15.964,22.487-31.867,21.474
	c-15.38-0.98-25.526-10.108-28.463-25.889C338.198,78.529,337.961,74.025,337.319,68.344z M358.223,69.635
	c0.759,5.698,1.064,10.707,2.183,15.528c0.922,3.974,3.711,6.637,8.164,6.859c4.461,0.223,8.123-1.483,9.547-5.719
	c3.535-10.515,3.945-21.192-0.013-31.739c-1.487-3.962-4.565-6.086-8.871-6.028c-4.415,0.059-7.324,2.58-8.359,6.597
	C359.599,60.073,359.006,65.188,358.223,69.635z"/>
<path fill="#030303" d="M687.715,106.978c-6.652,0-12.459,0.213-18.23-0.147c-1.468-0.092-3.415-1.703-4.133-3.125
	c-4.735-9.381-9.194-18.901-14.513-28.162c0,10.22,0,20.44,0,31.045c-6.677,0-13.051,0-19.721,0c0-23.9,0-47.952,0-73.422
	c11.869,0.779,23.963,0.795,35.781,2.606c8.69,1.332,15.035,7.176,16.617,16.456c1.686,9.891-2.809,16.994-11.394,21.991
	C677.239,84.968,682.267,95.531,687.715,106.978z M650.795,48.31c0,5.506,0,11.012,0,16.502c8.387,0.371,12.809-2.366,12.764-7.71
	C663.506,50.859,659.152,47.836,650.795,48.31z"/>
<path fill="#040404" d="M585.172,106.842c0-24.486,0-48.407,0-72.615c13.203,0,26.256,0,39.586,0c0,4.894,0,9.807,0,15.116
	c-6.389,0-12.811,0-19.536,0c0,4.619,0,8.851,0,13.511c5.574,0,11.154,0,16.967,0c0,5.177,0,9.935,0,15.146
	c-5.703,0-11.271,0-17.042,0c0,4.692,0,8.933,0,13.541c6.658,0,13.093,0,19.728,0c0,5.274,0,10.182,0,15.301
	C611.616,106.842,598.555,106.842,585.172,106.842z"/>
<path fill="#020202" d="M740.138,34.038c13.11,0,26.046,0,39.334,0c0,4.847,0,9.754,0,15.095c-6.25,0-12.664,0-19.474,0
	c0,4.642,0,8.868,0,13.599c5.387,0,10.958,0,16.739,0c0,5.231,0,9.976,0,15.184c-5.595,0-11.167,0-16.93,0c0,4.539,0,8.624,0,13.262
	c6.571,0,13.118,0,19.868,0c0,5.464,0,10.38,0,15.549c-13.133,0-26.194,0-39.537,0C740.138,82.561,740.138,58.388,740.138,34.038z"
	/>
<path fill="#040404" d="M333.466,33.575c0,5.388,0,10.838,0,16.982c-8.367-1.835-16.668-3.162-23.114,4.2
	c-4.322,4.936-5.637,10.829-5.291,17.183c0.805,14.795,9.097,20.168,28.596,18.175c0,4.983,0.219,9.935-0.168,14.84
	c-0.087,1.097-2.164,2.645-3.548,2.94c-23.069,4.919-42.753-9.211-45.757-32.694C280.485,46.289,305.705,24.871,333.466,33.575z"/>
<path fill="#030303" d="M734.015,33.353c0,5.674,0,11.13,0,17.202c-8.137-1.822-16.103-3.102-22.493,3.693
	c-4.924,5.237-6.066,11.621-5.636,18.514c0.881,14.112,9.797,19.728,28.318,17.334c0,4.973,0.177,9.901-0.139,14.797
	c-0.069,1.07-1.747,2.653-2.941,2.943c-23.744,5.766-44.888-10.77-46.433-35.152C682.966,45.459,705.436,26.262,734.015,33.353z"/>
<path fill="#9C5F90" d="M142.88,76.301c0.441-10.412,3.317-17.874,8.994-24.126c5.506-6.064,11.524-4.961,14.74,2.536
	c4.762,11.101,1.529,26.882-7.07,34.5c-6.019,5.333-11.521,4.217-14.311-3.247C143.863,82.297,143.35,78.308,142.88,76.301z"/>
<path fill="#9C5E90" d="M236.163,63.928c-0.441,10.159-2.175,17.856-7.922,24.011c-6.76,7.241-13.221,5.887-16.281-3.456
	c-4.047-12.357-0.846-23.289,7.616-32.677c5.152-5.716,11.074-4.566,14.023,2.567C235.089,57.976,235.656,61.961,236.163,63.928z"/>
</svg>
