<?xml version="1.0" encoding="utf-8"?>
<!-- Generator: Adobe Illustrator 17.0.0, SVG Export Plug-In . SVG Version: 6.00 Build 0)  -->
<svg version="1.2" baseProfile="tiny" id="Layer_1" xmlns="http://www.w3.org/2000/svg" xmlns:xlink="http://www.w3.org/1999/xlink"
	 x="0px" y="0px" width="899.407px" height="339.858px" viewBox="54.093 77.642 899.407 339.858" xml:space="preserve">
<path fill="#4DB987" d="M367.527,77.604c25.986,0,51.973,0,78.968,0C381.063,190.95,315.907,303.817,250.287,417.489
	C184.685,303.853,119.571,191.061,54.093,77.642c26.72,0,52.63,0,78.539,0c15.699,27.214,31.397,54.43,47.1,81.643
	c20.357,35.279,40.711,70.559,61.083,105.829c2.999,5.193,6.087,10.334,9.545,16.195c14.42-24.921,28.255-48.777,42.038-72.664
	c18.362-31.824,36.706-63.658,55.009-95.516C354.186,101.329,360.824,89.448,367.527,77.604z"/>
<path fill="#435466" d="M367.527,77.604c-6.702,11.844-13.341,23.725-20.12,35.525c-18.302,31.858-36.647,63.692-55.009,95.516
	c-13.782,23.887-27.618,47.743-42.038,72.664c-3.458-5.861-6.546-11.003-9.545-16.195c-20.372-35.27-40.726-70.55-61.083-105.829
	c-15.703-27.213-31.4-54.428-47.1-81.643c23.3-0.068,46.6-0.205,69.898-0.051c1.564,0.01,3.674,1.889,4.585,3.45
	c13.561,23.241,26.961,46.575,40.406,69.884c0.795,1.379,1.653,2.721,2.801,4.603c3.583-6.154,6.923-11.852,10.227-17.571
	c10.969-18.984,21.879-38.002,32.971-56.914c0.917-1.563,3.033-3.439,4.604-3.45C321.258,77.425,344.392,77.549,367.527,77.604z"/>
<path fill="#2F4153" d="M526.053,275.754c4.484-15.224,8.966-30.449,13.451-45.672c7.851-26.649,15.884-53.247,23.441-79.98
	c2.134-7.548,7.113-9.755,14.363-5.579c3.625,2.087,4.871,4.855,3.53,9.194c-10.709,34.643-21.239,69.341-31.831,104.02
	c-3.839,12.569-7.664,25.142-11.558,37.694c-1.885,6.076-5.793,8.778-12.311,8.737c-6.293-0.04-9.764-2.587-11.674-8.773
	c-14.625-47.356-29.229-94.719-43.836-142.081c-1.551-5.029,0.179-7.799,6.107-9.831c5.894-2.02,9.616-0.642,11.226,4.535
	c3.014,9.688,5.823,19.441,8.708,29.169c9.411,31.736,18.816,63.474,28.231,95.208c0.328,1.104,0.737,2.184,1.109,3.275
	C525.358,275.697,525.706,275.726,526.053,275.754z"/>
<path fill="#314254" d="M716.715,256.058c-2.856,16.762,5.95,29.371,22.428,32.411c11.024,2.034,21.051-0.135,30.548-6.058
	c4.985-3.109,9.362-1.46,10.747,4.111c0.546,2.194-0.496,6.252-2.153,7.259c-5.864,3.561-12.038,7.163-18.585,8.932
	c-13.264,3.584-26.475,2.105-38.886-4.058c-13.77-6.837-21.815-17.954-22.628-33.398c-0.559-10.613-0.896-21.394,0.313-31.91
	c2.444-21.261,23.766-37.247,46.014-35.551c22.322,1.701,39.007,18.995,39.008,40.431c0,12.463-5.051,17.723-17.484,17.805
	C749.713,256.139,733.388,256.058,716.715,256.058z M716.142,243.642c14.875,0,29.502,0.017,44.13-0.01
	c4.402-0.008,6.121-2.428,6.161-6.686c0.136-14.506-12.445-26.25-27.021-25.09C723.253,213.142,714.498,224.885,716.142,243.642z"/>
<path fill="#304153" d="M590.035,235.653c-0.002-9.331-0.032-18.661,0.009-27.992c0.024-5.522,3.586-8.873,9.167-8.761
	c5.265,0.106,8.817,3.478,8.835,8.735c0.062,17.995-0.077,35.99,0.056,53.984c0.094,12.74,7.922,22.949,19.475,25.915
	c15.436,3.962,30.816-8.795,30.949-25.89c0.139-17.827,0.025-35.656,0.03-53.485c0.002-6.007,3.173-9.241,9.052-9.27
	c5.88-0.029,8.965,3.155,8.97,9.338c0.013,17.495,0.057,34.99-0.01,52.485c-0.093,24.141-19.671,43.897-43.314,43.81
	c-23.906-0.089-43.064-19.524-43.21-43.876C589.995,252.315,590.037,243.984,590.035,235.653z"/>
<path fill="#304253" d="M915.193,305.591c-7.603-2.158-16.281-4.244-24.654-7.195c-3.071-1.082-5.803-3.889-8.003-6.491
	c-2.968-3.51-1.607-7.242,1.109-10.385c2.863-3.314,5.691-1.522,8.306,0.481c10.426,7.988,22.101,9.512,34.546,6.548
	c5.155-1.228,9.244-4.129,10.26-9.706c1.062-5.826-0.456-11.162-5.525-14.511c-3.689-2.438-7.897-4.211-12.063-5.776
	c-6.066-2.279-12.414-3.819-18.439-6.19c-9.865-3.882-16.506-10.697-17.086-21.837c-0.607-11.669,3.249-21.772,13.786-27.451
	c16.003-8.624,32.441-7.139,48.381,0.705c4.775,2.35,5.41,5.568,3.179,9.886c-2.41,4.664-5.08,5.669-10.173,3.295
	c-7.063-3.292-14.359-5.662-22.171-4.539c-3.827,0.55-7.962,1.699-11.092,3.842c-8.771,6.007-8.022,17.758,1.596,22.104
	c7.677,3.469,15.995,5.513,24.014,8.233c14.545,4.935,22.241,14.761,22.316,28.429c0.068,12.42-6.906,22.642-18.842,26.463
	C928.843,303.353,922.68,304.059,915.193,305.591z"/>
<path fill="#314254" d="M842.82,263.942c0-18.318-0.003-36.635,0.002-54.953c0.002-7.149,2.81-10.23,9.184-10.106
	c6.225,0.122,9.02,3.146,9.022,9.864c0.009,33.638,0.222,67.279-0.159,100.912c-0.091,8.036-1.393,16.267-3.54,24.021
	c-3.14,11.344-11.663,17.532-23.126,19.275c-2.756,0.419-6.405,0.032-8.477-1.532c-2.094-1.58-4.047-5.298-3.651-7.677
	c0.4-2.402,3.429-5.572,5.882-6.218c11.326-2.982,14.342-5.734,14.556-17.639c0.335-18.643,0.089-37.297,0.089-55.947
	C842.674,263.943,842.747,263.943,842.82,263.942z"/>
<path fill="#2F4152" d="M821.783,292.629c-0.023,6.304-5.124,11.327-11.449,11.272c-6.162-0.053-11.261-5.344-11.173-11.593
	c0.084-5.94,5.212-10.958,11.259-11.018C816.704,281.228,821.806,286.32,821.783,292.629z"/>
<path fill="#324455" d="M862.763,159.981c-0.054,5.498-5.44,10.366-11.312,10.224c-5.945-0.144-11.012-5.116-10.883-10.681
	c0.125-5.358,5.143-9.816,11.069-9.835C857.739,149.671,862.818,154.37,862.763,159.981z"/>
<path fill="none" d="z"/>
</svg>
