<?xml version="1.0" encoding="utf-8"?>
<!-- Generator: Adobe Illustrator 17.0.0, SVG Export Plug-In . SVG Version: 6.00 Build 0)  -->
<svg version="1.2" baseProfile="tiny" id="Layer_1" xmlns="http://www.w3.org/2000/svg" xmlns:xlink="http://www.w3.org/1999/xlink"
	 x="0px" y="0px" width="512px" height="108px" viewBox="0 0 512 108" xml:space="preserve">
<path fill="#049A04" d="M293,109c-6.308-3.632-7.993-9.15-7.907-16.238c0.308-25.402,0.29-50.811,0.019-76.213
	C285.03,8.84,287.453,3.485,295,1c1,0,2,0,3,0c7.309,2.572,9.664,7.816,9.435,15.367c-0.408,13.475-0.115,26.971-0.115,40.458
	c0,4.24,0,8.479,0,13.718c1.997-1.878,3.209-2.949,4.344-4.096c19.205-19.411,38.347-38.885,57.657-58.192
	C372.144,5.433,375.754,3.399,379,1c1,0,2,0,3,0c7.669,2.48,9.847,8.028,9.774,15.673c-0.247,25.796-0.234,51.597-0.003,77.393
	c0.063,7.052-2.143,12.128-8.771,14.934c-2,0-4,0-6,0c-6.269-3.785-7.742-9.461-7.574-16.491
	c0.378-15.821,0.125-31.658,0.107-47.489c-0.002-1.39-0.163-2.781-0.297-4.909c-1.598,1.476-2.592,2.326-3.509,3.252
	c-19.233,19.414-38.423,38.871-57.723,58.218c-2.733,2.74-5.99,4.959-9.004,7.419C297,109,295,109,293,109z"/>
<path fill="#029902" d="M11,1c1.667,0,3.333,0,5,0c2.715,2.029,5.729,3.761,8.098,6.135c19.644,19.684,39.167,39.489,58.735,59.249
	c1.107,1.118,2.29,2.16,4.095,3.853c0-18.861,0.219-36.789-0.107-54.707C86.689,8.298,89.147,3.451,96,1c1.333,0,2.667,0,4,0
	c6.693,2.59,9.156,7.42,9.082,14.599c-0.265,25.745-0.319,51.498,0.029,77.241c0.102,7.595-1.844,13.149-9.111,16.16
	c-1.667,0-3.333,0-5,0c-3.908-3.51-7.992-6.843-11.693-10.559C65.22,80.276,47.239,62.006,29.208,43.785
	c-1.211-1.224-2.517-2.353-4.381-4.087c0,18.527-0.229,36.138,0.105,53.738C25.08,101.192,22.583,106.533,15,109
	c-1.333,0-2.667,0-4,0c-7.004-3.555-8.411-9.454-8.307-16.883C3.044,66.985,3.028,41.843,2.699,16.71C2.605,9.562,4.362,4.2,11,1z"
	/>
<path fill="#039A03" d="M414,1c1,0,2,0,3,0c3.273,2.372,6.817,4.452,9.759,7.181c5.492,5.094,10.629,10.57,15.921,15.88
	c4.997,5.014,10.004,10.018,15.375,15.395c2.033-2.228,3.625-4.157,5.405-5.893C474.617,22.684,485.815,11.849,497,1
	c1.667,0,3.333,0,5,0c11.131,5.938,12.126,13.092,3.081,22.194c-8.338,8.391-16.617,16.843-25.064,25.124
	c-2.209,2.165-4.947,3.792-8.001,6.086c3.014,2.602,4.484,3.716,5.774,5.01c9.766,9.79,19.573,19.542,29.212,29.458
	c5.794,5.96,5.096,14.084-1.329,17.985c-1.455,0.884-3.11,1.438-4.673,2.144c-1.333,0-2.667,0-4,0
	c-13.151-12.591-26.302-25.181-39.241-37.568c-10.312,10.169-20.529,20.428-30.987,30.435c-2.888,2.764-6.495,4.776-9.772,7.132
	c-1.333,0-2.667,0-4,0c-10.797-7.398-11.367-13.324-1.928-22.63c10.402-10.256,20.944-20.37,32.214-31.314
	c-11.593-11.285-22.372-21.656-33.009-32.171C401.361,14.071,402.777,6.137,414,1z"/>
<path fill="#039A03" d="M259,109c-7.157-3.457-9.418-9.143-9.126-16.984c0.508-13.634,0.141-27.301,0.141-41.272
	c7.306,0,14.382,0,22.059,0c0,6.319,0,12.584,0,18.849c0,7.664-0.403,15.355,0.109,22.984c0.55,8.2-2.244,13.763-10.184,16.423
	C261,109,260,109,259,109z"/>
<path fill="#059A05" d="M263,1c6.837,2.725,9.555,7.693,9.175,15.07c-0.425,8.266-0.098,16.571-0.098,25.183
	c-7.303,0-14.351,0-21.908,0c0-10.2-0.649-20.472,0.36-30.579C250.872,7.235,255.39,4.213,258,1C259.667,1,261.333,1,263,1z"/>
<path fill="#44B344" d="M148.959,1.978C148.928,1.65,148.942,1.324,149,1c21.333,0,42.667,0,64,0
	c0.071,0.324,0.084,0.649,0.04,0.978C191.68,1.978,170.319,1.978,148.959,1.978z"/>
<path fill="#88CE88" d="M149,109c0.015-0.349,0.03-0.697,0.045-1.046c20.612-0.02,41.224-0.041,61.836-0.061
	c0.04,0.369,0.079,0.738,0.119,1.107C190.333,109,169.667,109,149,109z"/>
<path fill="#049A04" d="M210.881,107.893c-20.612,0.02-41.224,0.041-61.836,0.061c-9.306-16.493-18.654-32.964-27.84-49.524
	c-0.737-1.328-1.056-3.647-0.396-4.876c9.264-17.256,18.732-34.403,28.15-51.576c21.361,0,42.721,0,64.082,0
	c5.65,12.887,11.3,25.775,17.351,39.578c-7.635,0-14.37,0.097-21.095-0.114c-0.913-0.029-2.068-1.441-2.613-2.475
	c-2.013-3.818-4.03-7.661-5.629-11.661c-1.193-2.983-3.015-3.758-6.071-3.699c-9.659,0.186-19.327,0.188-28.986-0.004
	c-2.919-0.058-4.473,0.934-5.803,3.468c-4.479,8.537-9.314,16.889-13.702,25.469c-0.787,1.539-0.785,4.188,0.015,5.714
	c4.323,8.24,9.111,16.236,13.517,24.435c1.352,2.516,2.867,3.528,5.8,3.459c8.992-0.211,17.996-0.248,26.985,0.015
	c3.201,0.093,4.832-1.009,5.961-3.822c1.222-3.046,2.775-5.96,4.494-9.586c-3.981,0-7.392-0.008-10.803,0.002
	c-4.498,0.014-8.996,0.064-13.494,0.06c-8.091-0.008-13.805-4.678-13.813-11.254c-0.008-6.579,5.611-11.213,13.803-11.228
	c19.787-0.036,39.575-0.012,60.102-0.012C229.534,69.784,220.208,88.839,210.881,107.893z"/>
</svg>
