<?xml version="1.0" encoding="utf-8"?>
<!-- Generator: Adobe Illustrator 17.0.0, SVG Export Plug-In . SVG Version: 6.00 Build 0)  -->
<svg version="1.2" baseProfile="tiny" id="Layer_1" xmlns="http://www.w3.org/2000/svg" xmlns:xlink="http://www.w3.org/1999/xlink"
	 x="0px" y="0px" width="802px" height="181.28px" viewBox="-8.5 213.5 802 181.28" xml:space="preserve">
<path fill="#02759A" d="M388.495,320.978c0.221,4.656,0.208,9.464,0.75,14.21c0.432,3.785,3.37,5.724,7.733,5.839
	c0.842,0.023,1.684,0.003,2.664,0.003v3.159H365.73v-3.007c1.292-0.132,2.64-0.18,3.953-0.419c4.304-0.788,6.494-3.228,6.576-7.601
	c0.196-10.334,0.306-20.67,0.394-31.006c0.015-1.788-0.096-3.61-0.433-5.362c-0.959-4.95-3.274-5.505-7.2-6.403
	c-1.003-0.229-2.071-0.176-3.258-0.264v-3.149h1.745c9.39,0,18.78,0.002,28.169,0c5.284,0,10.385,0.794,15.142,3.272
	c3.409,1.776,6.106,4.511,7.392,7.906c1.181,3.117,1.262,6.719,0.135,10.135c-2.145,6.497-7.416,9.179-13.34,11.096
	c-0.666,0.216-1.363,0.333-2.768,0.669c2.864,2.715,5.436,5.042,7.876,7.504c1.816,1.832,3.338,3.966,5.205,5.739
	c3.729,3.541,7.802,6.55,13.071,7.476c3.132,0.55,6.096,0.274,8.983-1.139c1.962-0.959,2.686-2.743,3.037-4.589
	c0.455-2.388,0.68-4.851,0.699-7.284c0.068-8.672,0.073-17.345-0.051-26.016c-0.031-2.134-0.491-4.296-1.012-6.38
	c-0.788-3.15-3.73-5.085-7.014-4.9c-0.961,0.054-1.928,0.008-3.005,0.008v-3.394c0.415-0.036,0.788-0.096,1.16-0.096
	c10.563,0.002,21.127-0.025,31.69,0.028c7.079,0.035,13.959,1.508,20.115,4.876c4.706,2.575,8.402,6.609,10.598,11.718
	c2.221,5.166,2.813,10.509,2.068,16.1c-1.499,11.26-8.019,18.253-18.362,22.079c-5.665,2.096-11.582,2.533-17.571,2.518
	c-15.063-0.038-30.128-0.168-45.187,0.104c-3.467,0.063-5.306-1.405-7.138-3.788c-3.314-4.302-6.733-8.524-10.1-12.783
	c-1.394-1.763-2.798-3.523-4.147-5.319C392.05,321.06,390.783,320.172,388.495,320.978L388.495,320.978z M452.979,292.43v1.076
	c0.003,12.188-0.003,24.378,0.02,36.566c0.003,1.364,0.125,2.732,0.269,4.091c0.341,3.203,1.43,4.445,4.665,4.663
	c2.584,0.175,5.227,0.143,7.79-0.199c7.42-0.989,12.649-4.892,15.035-12.145c2.195-6.675,2.261-13.482,0.542-20.235
	c-2.074-8.153-7.382-12.845-15.787-13.742C461.466,292.072,457.336,292.43,452.979,292.43z M388.768,314.875
	c3.042,0,5.905,0.185,8.736-0.04c5.131-0.407,8.675-4.07,9.244-9.225c0.707-6.408-1.925-11.262-6.988-12.895
	c-0.124-0.04-0.242-0.119-0.367-0.127c-3.533-0.222-7.065-0.44-10.71-0.664c0,7.53-0.002,14.613,0.003,21.699
	C388.686,314.006,388.735,314.39,388.768,314.875z"/>
<path fill="#474443" d="M589.119,320.806c0.269,4.979,0.315,9.913,0.875,14.788c0.387,3.37,3.505,5.304,7.66,5.432
	c0.845,0.026,1.692,0.003,2.687,0.003v3.144h-33.9v-2.987c1.349-0.142,2.691-0.26,4.025-0.425c4.777-0.59,6.441-4.068,6.553-7.594
	c0.325-10.198,0.302-20.407,0.339-30.611c0.007-1.906-0.203-3.837-0.549-5.714c-0.909-4.92-2.864-5.635-7.126-6.464
	c-1.012-0.196-2.068-0.171-3.249-0.259v-3.141h1.964c8.738,0,17.479-0.082,26.215,0.038c3.813,0.053,7.787-0.068,11.387,0.954
	c4.261,1.209,8.245,3.32,11.122,7.189c2.839,3.818,3.233,8.206,2.269,12.216c-1.015,4.228-3.877,7.924-8.242,9.817
	c-2.412,1.046-4.884,1.957-7.378,2.949c0.952,1.114,1.961,2.402,3.08,3.587c3.15,3.338,6.261,6.719,9.555,9.909
	c1.705,1.651,3.643,3.157,5.706,4.315c2.096,1.176,4.417,2.06,6.744,2.691c4.862,1.32,8.802-1.26,9.547-6.23
	c0.453-3.028,0.712-6.106,0.774-9.168c0.119-5.802,0.12-11.61,0.005-17.411c-0.077-3.903-0.349-7.808-0.7-11.699
	c-0.305-3.386-3.781-5.933-7.434-5.689c-0.903,0.061-1.813,0.008-2.875,0.008v-3.323h50.421c0.391,5.202,0.781,10.418,1.185,15.787
	h-2.887c-0.585-1.819-1.214-3.791-1.854-5.759c-0.914-2.814-3.51-3.943-5.83-4.21c-5.927-0.684-11.928-0.722-18.024-1.025v19.705
	c3.465-0.397,6.91-0.415,10.13-1.274c3.06-0.816,4.139-3.574,4.147-6.658c0.002-0.769,0-1.539,0-2.486
	c0.811,0,1.501-0.158,2.058,0.046c0.521,0.191,1.282,0.763,1.285,1.175c0.076,8.075,0.056,16.152,0.056,24.363h-3.315
	c-0.163-1.808-0.096-3.676-0.539-5.416c-0.816-3.208-3.744-3.818-6.4-4.223c-2.379-0.364-4.857-0.077-7.357-0.077
	c0,3.953-0.013,8.102,0.01,12.251c0.007,1.036-0.005,2.102,0.222,3.103c1.251,5.497,3.139,6.225,8.598,6.558
	c3.248,0.198,6.551-0.664,9.817-0.582c2.416,0.063,4.731-0.166,6.311-1.842c1.447-1.536,2.638-3.564,3.234-5.586
	c0.748-2.539,0.789-2.935,3.572-2.786c-0.273,5.281-0.549,10.562-0.835,16.091h-2.282c-22.173,0-44.345-0.028-66.518,0.053
	c-1.789,0.007-2.862-0.648-3.869-1.928c-5.388-6.851-10.825-13.664-16.195-20.53C592.248,320.516,590.958,320.585,589.119,320.806
	L589.119,320.806z M589.435,314.932c2.803,0,5.526,0.158,8.225-0.033c5.324-0.377,8.553-3.35,9.641-8.586
	c1.257-6.047-1.396-12.018-6.584-13.361c-3.608-0.934-7.495-0.788-11.283-1.125C589.435,299.871,589.435,307.34,589.435,314.932
	L589.435,314.932z"/>
<path fill="#03759B" d="M269.613,320.948c1.468-4.263,2.837-8.187,4.169-12.124c2.823-8.346,5.648-16.688,8.411-25.053
	c0.47-1.424,0.761-2.933,0.921-4.426c0.303-2.847-2.144-5.4-5.251-5.683c-1.719-0.157-3.431-0.387-5.259-0.598v-3.19h32.054v3.112
	c-1.725,0.247-3.421,0.633-5.131,0.705c-4.305,0.181-7.301,2.452-8.916,6.154c-2.33,5.34-4.365,10.825-6.232,16.348
	c-5.118,15.126-10.082,30.305-15.106,45.462c-0.488,1.47-0.868,2.986-1.496,4.391c-0.237,0.534-1.035,1.127-1.575,1.125
	c-0.498-0.003-1.267-0.677-1.443-1.213c-3.141-9.476-6.192-18.983-9.296-28.471c-2.547-7.787-5.136-15.559-7.878-23.855
	c-1.023,2.966-1.918,5.472-2.753,7.996c-4.368,13.187-8.72,26.376-13.078,39.566c-0.445,1.346-1.035,2.663-1.305,4.042
	c-0.349,1.775-1.244,2.419-3.126,1.888c-2.094-6.403-4.22-12.941-6.373-19.471c-1.808-5.479-3.673-10.937-5.462-16.423
	c-1.611-4.938-3.142-9.903-4.732-14.849c-1.443-4.493-2.783-9.026-4.421-13.449c-1.371-3.704-3.307-7.209-7.364-8.558
	c-2.303-0.766-4.798-0.952-7.317-1.42v-3.096h37.882c0.69,3.104,0.583,3.226-2.378,3.429c-1.272,0.087-2.556,0.231-3.798,0.511
	c-3.664,0.825-5.194,3.462-4.305,6.869c1.707,6.551,4.154,12.906,6.228,19.365c0.956,2.972,1.707,6.011,2.64,8.99
	c1.216,3.882,2.523,7.736,3.959,12.119c2.226-6.579,4.266-12.605,6.304-18.631c3.503-10.359,7.054-20.703,10.453-31.095
	c0.448-1.369,1.05-1.577,2.271-1.653c1.373-0.086,1.883,0.419,2.3,1.692c5.213,15.925,10.494,31.827,15.762,47.734
	C269.125,319.671,269.315,320.139,269.613,320.948L269.613,320.948z"/>
<path fill="#4B4847" d="M101.368,394.77c-29.273-0.084-49.49-8.085-66.503-23.984c-14.297-13.36-23.29-29.762-26.719-49.039
	c-3.625-20.372-1.031-40.161,9.14-58.108c17.083-30.138,43.405-46.307,78.253-46.536c49.222-0.321,88.892,39.517,88.819,88.953
	c-0.036,24.33-8.998,45.292-26.175,62.683C143.057,384.055,119.875,395.154,101.368,394.77L101.368,394.77z M95.501,390.674
	c46.548,0.161,84.555-37.788,84.782-84.652c0.226-46.671-37.955-84.992-84.649-84.959c-46.709,0.033-84.527,37.853-84.726,84.726
	C10.708,352.31,48.78,390.512,95.501,390.674z"/>
<path fill="#474443" d="M538.501,341.098v3.053h-39.243v-2.996c1.826-0.259,3.805-0.4,5.716-0.835
	c4.208-0.961,6.129-3.648,6.701-7.817c2.104-15.35,0.908-30.749,0.745-46.126c-0.03-2.865-1.092-5.764-1.948-8.563
	c-0.877-2.867-3.516-3.608-6.068-4.157c-1.671-0.359-3.409-0.4-5.195-0.592v-3.223c0.346-0.036,0.652-0.096,0.959-0.094
	c12.261,0.013,24.523-0.089,36.78,0.127c3.641,0.064,7.525,0.386,10.847,1.714c7.288,2.913,13.094,7.752,14.187,16.138
	c1.086,8.334-1.498,15.551-9.917,20.476c-3.959,2.317-8.276,3.623-12.832,3.808c-4.699,0.191-9.412,0.043-14.06,0.043
	c0,5.691-0.107,10.952,0.051,16.203c0.068,2.231,0.486,4.505,1.112,6.652c1.041,3.572,3.679,5.451,7.416,5.737
	C535.296,340.763,536.839,340.938,538.501,341.098L538.501,341.098z M525.022,305.829c3.716,0,7.349,0.091,10.977-0.02
	c6.334-0.191,11.173-4.254,12.363-10.473c0.399-2.086,0.565-4.297,0.353-6.403c-0.583-5.788-3.037-10.758-9.031-12.139
	c-4.709-1.086-9.731-0.812-14.661-1.147L525.022,305.829L525.022,305.829z"/>
<path fill="#03759B" d="M293.571,315.283c0.756-11.117,5.839-19.639,15.457-25.462c6.082-3.681,12.753-5.187,19.772-5.09
	c6.91,0.096,13.297,2.098,19.26,5.66c5.058,3.022,8.83,7.34,11.54,12.308c1.755,3.215,2.636,7.214,2.829,10.918
	c0.69,13.272-5.864,22.522-17.162,28.752c-4.694,2.589-9.777,3.864-15.152,4.156c-11.216,0.61-20.804-2.989-28.508-11.142
	c-4.009-4.243-6.634-9.334-7.451-15.22C293.936,318.585,293.775,316.998,293.571,315.283L293.571,315.283z M349.693,315.125
	c0.059-4.001-0.715-8.276-2.467-12.325c-3.304-7.635-8.942-12.165-17.436-12.664c-8.789-0.516-15.6,2.877-19.514,10.86
	c-4.721,9.631-4.699,19.524-0.003,29.168c3.547,7.286,9.705,10.812,17.795,10.857c8.22,0.046,14.414-3.457,18.271-10.791
	C348.749,325.647,349.724,320.701,349.693,315.125L349.693,315.125z"/>
<path fill="#4B4847" d="M784.239,284.885v19.868c-3.109,0.753-3.155,0.562-4.269-2.29c-1.069-2.738-2.157-5.637-3.968-7.871
	c-1.934-2.388-4.887-3.92-8.102-4.078c-2.208-0.109-4.525,0.094-6.648,0.68c-2.491,0.69-4.226,2.557-4.628,5.217
	c-0.468,3.093,0.972,5.54,3.519,7.037c3.867,2.274,7.944,4.187,11.9,6.314c3.92,2.107,8.255,3.747,11.595,6.558
	c5.764,4.851,7.859,12.083,3.73,19.886c-3.48,6.576-9.428,9.445-16.54,10.252c-6.003,0.682-11.399-1.081-16.36-4.352
	c-0.453-0.298-0.694-0.921-1.033-1.394c-0.239,0.012-0.479,0.021-0.718,0.033c-0.914,1.829-1.827,3.66-2.865,5.736h-2.846v-23.383
	c2.755-0.863,3.206-0.62,3.776,2.048c2.221,10.394,10.989,16.874,21.094,15.518c3.597-0.483,6.487-2.139,7.581-5.833
	c1.073-3.62-0.287-6.648-3.165-8.787c-2.49-1.849-5.236-3.389-7.986-4.843c-3.218-1.7-6.614-3.065-9.842-4.75
	c-3.566-1.862-6.963-3.974-9.146-7.568c-1.44-2.373-2.269-4.854-2.394-7.662c-0.323-7.164,3.277-11.598,9.45-14.607
	c4.141-2.018,8.438-1.611,12.715-1.386c3.063,0.161,5.887,1.409,8.369,3.277c0.975,0.735,1.649,0.387,2.206-0.517
	c0.166-0.27,0.308-0.562,0.422-0.858C781.107,284.44,781.104,284.44,784.239,284.885z"/>
<path fill="#4B4847" d="M693.912,345.708v-22.639c3.065-0.73,3.294-0.547,3.95,2.163c0.763,3.16,1.982,6.04,4.132,8.645
	c3.821,4.632,8.756,6.68,14.501,7.121c4.279,0.33,8.105-2.074,9.652-6.184c0.588-1.562,0.501-3.187-0.374-5.044
	c-2.482-5.261-7.197-6.901-12.027-8.815c-3.267-1.297-6.139-3.569-9.382-4.953c-4.566-1.951-7.663-5.523-9.558-9.642
	c-1.257-2.735-1.779-6.21-0.616-9.654c2.463-7.294,8.255-10.904,15.095-11.577c5.52-0.542,10.848,0.216,15.569,3.533
	c0.308,0.216,1.391-0.066,1.595-0.417c0.62-1.066,0.985-2.282,1.476-3.505h3.188v20.087c-0.043,0.03-0.143,0.158-0.252,0.165
	c-3.048,0.19-3.165,0.217-3.933-2.729c-1.155-4.432-3.264-8.15-7.456-10.278c-4.152-2.107-8.435-2.236-12.648-0.092
	c-3.384,1.72-4.365,6.647-1.77,9.512c1.279,1.41,2.842,2.701,4.52,3.587c5.418,2.867,10.956,5.505,16.431,8.265
	c2.999,1.511,5.439,3.676,7.502,6.337c4.088,5.276,3.488,13.226,0.008,18.079c-3.941,5.497-9.403,8.283-16.075,8.815
	c-6.573,0.524-12.359-1.539-17.794-5.691c-0.7,1.326-1.621,2.483-1.918,3.781c-0.364,1.602-1.033,2.213-2.625,1.962
	c-0.331-0.051-0.71,0.213-1.068,0.33C693.998,346.484,693.955,346.095,693.912,345.708L693.912,345.708z"/>
<path fill="#D9D8D8" d="M693.912,345.708c0.043,0.387,0.084,0.774,0.127,1.163c-0.254-0.201-0.508-0.4-0.761-0.601
	C693.491,346.082,693.701,345.896,693.912,345.708z"/>
<path fill="#474443" d="M133.401,351.335c-9.059-26.97-18.116-53.939-27.256-81.146c2.887-0.265,5.648-0.486,8.403-0.783
	c2.257-0.244,3.491-1.839,3.014-3.902c-0.397-1.714-1.585-2.462-3.315-2.366c-2.994,0.165-5.988,0.496-8.98,0.481
	c-9.443-0.048-18.884-0.221-28.326-0.354c-1.043-0.015-2.084-0.135-3.126-0.119c-1.845,0.031-3.078,1.242-3.164,3.025
	c-0.081,1.689,0.967,2.979,2.762,3.2c2.262,0.277,4.553,0.356,6.8,0.713c0.641,0.102,1.486,0.763,1.71,1.364
	c3.719,9.995,7.364,20.02,10.984,30.051c0.222,0.616,0.315,1.425,0.115,2.028c-5.332,16.116-10.71,32.216-16.083,48.319
	c-0.04,0.12-0.124,0.226-0.33,0.595c-9.234-27.489-18.403-54.786-27.629-82.253c2.794-0.26,5.38-0.498,7.963-0.745
	c2.476-0.236,3.683-1.438,3.524-3.498c-0.15-1.941-1.435-2.879-3.917-2.788c-7.423,0.269-14.847,0.557-22.27,0.832
	c-0.629,0.023-1.259,0.003-1.999,0.003c23.663-38.118,79.584-46.637,114.23-14.65c-1.371,0.262-2.697,0.402-3.954,0.776
	c-6.889,2.045-10.984,9.606-8.639,17.098c1.32,4.218,3.656,8.159,5.849,12.05c2.534,4.497,4.994,8.995,6.238,14.038
	c1.463,5.94,1.424,11.919-0.262,17.785c-3.861,13.432-7.866,26.825-11.812,40.232C133.755,351.325,133.577,351.33,133.401,351.335
	L133.401,351.335z"/>
<path fill="#474443" d="M120.773,377.82c-15.441,5.263-30.883,5.681-46.665,1.17c7.604-22.117,15.157-44.083,22.849-66.453
	C104.965,334.49,112.82,356.018,120.773,377.82L120.773,377.82z"/>
<path fill="#474443" d="M62.309,374.279C25.098,356.388,9.55,311.591,26.116,275.02C38.202,308.165,50.177,341.007,62.309,374.279z"
	/>
<path fill="#474443" d="M134.304,371.063c2.183-6.466,4.332-12.943,6.558-19.393c6.22-18.014,12.519-36.001,18.692-54.031
	c2.511-7.332,3.64-14.92,3.379-22.686c-0.043-1.302-0.229-2.597-0.351-3.895c0.171-0.059,0.343-0.12,0.514-0.18
	c0.287,0.438,0.623,0.854,0.852,1.32c17.055,34.676,5.675,77.564-28.597,98.669c-0.267,0.165-0.588,0.244-0.883,0.364
	C134.413,371.175,134.358,371.119,134.304,371.063L134.304,371.063z"/>
<path fill="#474443" d="M134.469,371.231c-0.105,0.064-0.211,0.127-0.318,0.191c0.051-0.119,0.104-0.237,0.153-0.358
	C134.358,371.119,134.413,371.175,134.469,371.231L134.469,371.231z"/>
</svg>
