<svg xmlns="http://www.w3.org/2000/svg" viewBox="0 0 366.06 384"><path d="M267,492H216V441.54H124.2c-.36-4.53-.78-7.41-.78-10.29q-.06-124.17.14-248.32c0-6.26,2.11-12.67,4.11-18.72C133.89,145.4,140.53,126.73,147,108H489q.22,117.45.44,234.89C458.54,374,427.79,405.26,396.56,436c-3.37,3.31-9.52,5.11-14.45,5.28-18.43.61-36.9-.07-55.33.45-5,.15-11.38,1.37-14.75,4.58C296.56,461.07,281.93,476.69,267,492ZM183.66,142V384h74.07v45.28a141.72,141.72,0,0,0,32.86-29.15c10.73-13,23.05-18,40.16-16.94,22.82,1.4,48.5,6,68-2.29,20.1-8.59,34.75-30.61,50.71-47.75,4.81-5.17,8.46-13.62,8.55-20.62.7-52.43.41-104.87.34-157.3,0-4.32-.6-8.64-.95-13.24Z" transform="translate(-123.37 -108)"/><path d="M306.79,209.81v98.08h-32.9V235.31C273.89,204.38,274.39,204,306.79,209.81Z" transform="translate(-123.37 -108)" style="fill:#050505"/><path d="M367.33,208.68h31v99h-31Z" transform="translate(-123.37 -108)" style="fill:#010101"/></svg>