<svg xmlns="http://www.w3.org/2000/svg" viewBox="0 0 357.18 368.32"><path d="M467.55,115.27Q424.7,166,381.82,216.72c-15.09,17.8-30.39,35.42-46.18,53.81L480.77,481.87c-20.3,0-38.06.06-55.81,0-16.69-.07-36.24,5-49.26-2-13.54-7.26-21-26.14-30.7-40.2-22.71-32.79-45.2-65.73-68.76-100-20.71,24-40.28,46.61-59.81,69.27-16.2,18.79-33.72,36.64-48.08,56.74-11.65,16.31-25.43,18.79-44.76,14.6,46.47-54.11,92.25-107.4,138.49-161.22-32.53-47.36-64.74-94-96.65-140.81-14.16-20.79-27.73-42-41.57-63h106L321.66,250.7,436,115.27Zm-300,23.66c.66,3,.6,4.12,1.08,4.81Q276.78,298.65,385.09,453.4c1.87,2.66,5.86,5.24,9,5.38,13.53.58,27.11.25,43.17.25-6-8.62-10.17-14.82-14.46-21Q322.32,294.39,221.68,150.85c-3.46-4.93-9.22-10.68-14.53-11.39C194.58,137.79,181.62,138.93,167.59,138.93Z" transform="translate(-123.59 -115.27)"/></svg>