<svg xmlns="http://www.w3.org/2000/svg" viewBox="0 0 407.92 300.03"><path d="M504.52,358.36c-2,11.85-3.58,23.82-6.2,35.54-7.76,34.68-29.12,53.21-64.79,53.47q-130,.93-260.06-.06c-41.76-.36-64.64-18.12-70.26-58.49-8.56-61.45-9.37-123.56.91-185,6.18-36.88,29-55.13,66.28-55.42,85.62-.67,171.26-.88,256.88-.1,46.92.43,70.36,24,74.33,70.83.53,6.17,1.92,12.27,2.91,18.4ZM302.29,171.44c-42.83,0-85.66-.7-128.47.23-30.27.67-45.47,11.2-46.79,40.63-2.61,58.45-1.73,117.15.33,175.65.78,22,13,31.89,35.22,34,91.83,8.74,183.81,7.55,275.7,1,23.09-1.64,35.78-12.17,36.81-36.28,2.46-57.43,3.3-115.11.74-172.51-1.41-31.58-16-41.81-48.26-42.52C385.82,170.72,344,171.41,302.29,171.44Z" transform="translate(-96.6 -147.82)"/><path d="M249.93,292.93c0-15.33-.53-30.68.13-46s11.56-22.37,24.89-15.47q44.28,22.91,87.48,47.85c13.58,7.88,13,22.34-1,30.28Q318.71,333.78,274.94,356c-13.48,6.86-24.21-.18-24.85-15.53C249.43,324.66,249.94,308.78,249.93,292.93Zm24,36.95L340.66,294,274,257.86Z" transform="translate(-96.6 -147.82)"/></svg>